<!DOCTYPE svg PUBLIC "-//W3C//DTD SVG 1.1//EN" "http://www.w3.org/Graphics/SVG/1.1/DTD/svg11.dtd">
<!-- Uploaded to: SVG Repo, www.svgrepo.com, Transformed by: SVG Repo Mixer Tools -->
<svg fill="#c62424" height="800px" width="800px" version="1.1" id="Layer_1" xmlns="http://www.w3.org/2000/svg" xmlns:xlink="http://www.w3.org/1999/xlink" viewBox="-51.21 -51.21 614.48 614.48" xml:space="preserve" stroke="#c62424" stroke-width="5.63266" transform="matrix(1, 0, 0, 1, 0, 0)rotate(0)">
<g id="SVGRepo_bgCarrier" stroke-width="0" transform="translate(0,0), scale(1)">
<rect x="-51.21" y="-51.21" width="614.48" height="614.48" rx="307.24" fill="#ffffff" strokewidth="0"/>
</g>
<g id="SVGRepo_tracerCarrier" stroke-linecap="round" stroke-linejoin="round" stroke="#CCCCCC" stroke-width="3.0723599999999993"/>
<g id="SVGRepo_iconCarrier"> <g> <g> <path d="M451.03,236.06h-14.68c-10.324-34.468-29.872-64.176-58.144-88.336c-1.676-1.436-4.204-1.24-5.636,0.44 c-1.44,1.68-1.24,4.204,0.44,5.636c27.84,23.796,46.844,53.184,56.488,87.344c0.484,1.724,2.06,2.916,3.848,2.916h17.684 c9.248,0,17.36,7.956,17.36,17.032v61.388c0,9.2-8.276,17.58-17.36,17.58h-17.684c-1.784,0-3.356,1.184-3.848,2.904 c-10.5,36.788-33.844,69.512-67.5,94.632c-1.012,0.76-1.608,1.948-1.608,3.208v46.264c0,9.528-6.916,16.992-15.74,16.992h-17.128 c-9.656,0-19.132-8.416-19.132-16.992v-17.54c0-1.264-0.592-2.452-1.604-3.204c-1.008-0.752-2.312-0.988-3.524-0.632 c-16.288,4.792-32.272,7.124-48.872,7.124c-16.6,0-32.588-2.332-48.872-7.124c-1.212-0.356-2.516-0.12-3.524,0.632 c-1.012,0.756-1.604,1.944-1.604,3.204v17.54c0,9.212-7.692,16.992-16.792,16.992h-17.14c-9.46,0-18.068-8.096-18.068-16.992 v-46.264c0-1.248-0.58-2.42-1.572-3.176c-45.744-35.016-73.056-89.536-73.056-145.84c0-43.664,16.372-86.236,46.108-119.868 c1.464-1.652,1.308-4.184-0.348-5.644c-1.652-1.456-4.18-1.304-5.644,0.348c-31.028,35.092-48.116,79.548-48.116,125.164 c0,58.132,27.86,114.416,74.624,150.976v44.304c0,13.312,12.18,24.992,26.068,24.992h17.14c13.436,0,24.792-11.444,24.792-24.992 v-12.264c15.268,4.044,30.376,6.016,46,6.016c15.624,0,30.732-1.972,46-6.016v12.264c0,14.304,14.324,24.992,27.132,24.992h17.128 c13.092,0,23.74-11.212,23.744-24.988v-44.268c33.34-25.356,56.76-58.02,67.944-94.74h14.696c13.508,0,25.36-11.956,25.36-25.58 v-61.392C476.39,247.756,464.538,236.06,451.03,236.06z"/> </g> </g> <g> <g> <path d="M376.39,72.22c-20.52,0-40.3,10.184-52.904,27.248c-1.312,1.772-0.932,4.28,0.844,5.592s4.28,0.928,5.592-0.844 c10.272-13.912,25.92-22.632,42.464-23.852v71.696c0,2.212,1.788,4,4,4c2.212,0,4-1.788,4.004-4V76.22 C380.39,74.008,378.602,72.22,376.39,72.22z"/> </g> </g> <g> <g> <path d="M357.786,224.868c-0.808-2.052-3.132-3.072-5.184-2.268c-2.056,0.804-3.072,3.124-2.268,5.184 c0.756,1.936,1.14,3.976,1.14,6.068c0,9.212-7.492,16.704-16.7,16.704c-9.212,0-16.704-7.492-16.704-16.704 s7.492-16.704,16.704-16.704c2.8,0,5.576,0.708,8.016,2.048c1.936,1.072,4.364,0.348,5.428-1.584 c1.064-1.936,0.352-4.364-1.584-5.428c-3.616-1.984-7.72-3.032-11.86-3.032c-13.62,0-24.704,11.084-24.704,24.704 s11.084,24.704,24.704,24.704s24.696-11.084,24.7-24.712C359.474,230.756,358.906,227.732,357.786,224.868z"/> </g> </g> <g> <g> <path d="M97.23,196.416c-1.836-1.228-4.32-0.752-5.556,1.08c-4.888,7.244-13.024,11.568-21.764,11.568 c-14.468,0-26.236-11.776-26.236-26.244c0-11.248,7.156-21.236,17.808-24.852c2.088-0.712,3.212-2.988,2.5-5.08 c-0.712-2.088-2.964-3.204-5.08-2.5c-13.896,4.724-23.232,17.756-23.232,32.428c0,18.884,15.36,34.244,34.236,34.244 c11.4,0,22.016-5.64,28.404-15.088C99.542,200.14,99.062,197.656,97.23,196.416z"/> </g> </g> <g> <g> <path d="M266.85,104.06H163.142c-6.572,0-11.924,5.384-11.924,12c0,6.616,5.348,12,11.924,12H266.85 c6.576,0,11.924-5.384,11.924-12C278.774,109.444,273.426,104.06,266.85,104.06z M266.85,120.06H163.142 c-2.128,0-3.924-1.832-3.924-4c0-2.208,1.76-4,3.924-4H266.85c2.164,0,3.924,1.792,3.924,4 C270.774,118.228,268.978,120.06,266.85,120.06z"/> </g> </g> <g> <g> <path d="M215.078,0C151.23,0,99.29,51.94,99.29,115.788c0,63.856,51.94,115.804,115.788,115.804S330.87,179.644,330.87,115.788 C330.87,51.94,278.926,0,215.078,0z M215.078,223.588c-59.432,0-107.788-48.36-107.788-107.804 c0-59.432,48.356-107.788,107.788-107.788c59.436,0,107.792,48.356,107.792,107.788 C322.87,175.228,274.514,223.588,215.078,223.588z"/> </g> </g> <g> <g> <path d="M293.01,52.984c-1.388-1.704-3.9-1.98-5.628-0.588c-1.712,1.388-1.98,3.908-0.588,5.628 c13.18,16.268,20.436,36.788,20.436,57.776c0,50.672-41.228,91.9-91.904,91.9c-50.672,0-91.9-41.228-91.9-91.9 s41.228-91.9,91.9-91.9c18.024,0,35.476,5.216,50.472,15.088c1.844,1.216,4.332,0.704,5.54-1.14 c1.216-1.844,0.704-4.324-1.14-5.54c-16.304-10.736-35.28-16.412-54.872-16.412c-55.084,0-99.9,44.808-99.9,99.896 s44.816,99.9,99.9,99.9c55.088,0,99.904-44.812,99.904-99.892C315.23,92.984,307.338,70.676,293.01,52.984z"/> </g> </g> </g>
</svg>